<svg width="880" height="180" viewBox="0 0 880 180" xmlns="http://www.w3.org/2000/svg" role="img" aria-label="Pack stats">
  <defs>
    <style>
      .card { fill: #131e35; stroke: #26365a; stroke-width: 1.5; }
      .num { font: 800 30px 'Segoe UI', Ubuntu, Helvetica, Arial, sans-serif; fill: #eaf2ff; }
      .cap { font: 600 13px 'Segoe UI', Ubuntu, Helvetica, Arial, sans-serif; fill: #8fa5c6; }
      .accent-a { fill: #57d9a3; } .accent-b { fill: #4fc3f7; } .accent-c { fill: #b388ff; } .accent-d { fill: #ffb74d; }
    </style>
  </defs>
  <rect width="880" height="180" rx="16" fill="#0d1526"/>

  <g>
    <rect x="24" y="24" width="196" height="132" rx="12" class="card"/>
    <rect x="24" y="24" width="196" height="5" rx="2.5" class="accent-a"/>
    <text x="122" y="84" text-anchor="middle" class="num">209</text>
    <text x="122" y="112" text-anchor="middle" class="cap">модов в сборке</text>
    <text x="122" y="132" text-anchor="middle" class="cap">58 подобрано взамен 1.20-only</text>
  </g>
  <g>
    <rect x="236" y="24" width="196" height="132" rx="12" class="card"/>
    <rect x="236" y="24" width="196" height="5" rx="2.5" class="accent-b"/>
    <text x="334" y="84" text-anchor="middle" class="num">23 300+</text>
    <text x="334" y="112" text-anchor="middle" class="cap">рецептов добавляют</text>
    <text x="334" y="132" text-anchor="middle" class="cap">скрипты сборки</text>
  </g>
  <g>
    <rect x="448" y="24" width="196" height="132" rx="12" class="card"/>
    <rect x="448" y="24" width="196" height="5" rx="2.5" class="accent-c"/>
    <text x="546" y="84" text-anchor="middle" class="num">1 194</text>
    <text x="546" y="112" text-anchor="middle" class="cap">квеста в 25 главах</text>
    <text x="546" y="132" text-anchor="middle" class="cap">RU + EN локализация</text>
  </g>
  <g>
    <rect x="660" y="24" width="196" height="132" rx="12" class="card"/>
    <rect x="660" y="24" width="196" height="5" rx="2.5" class="accent-d"/>
    <text x="758" y="84" text-anchor="middle" class="num">4 PR</text>
    <text x="758" y="112" text-anchor="middle" class="cap">с фиксами отправлено</text>
    <text x="758" y="132" text-anchor="middle" class="cap">в апстрим-моды</text>
  </g>
</svg>
